<svg xmlns="http://www.w3.org/2000/svg" viewBox="0 0 400 300" fill="none">
  <defs>
    <linearGradient id="ccp-bg" x1="0" y1="0" x2="0" y2="1">
      <stop offset="0%" stop-color="#FFFDD0"/>
      <stop offset="100%" stop-color="#F5DEB3"/>
    </linearGradient>
  </defs>
  <rect width="400" height="300" rx="12" fill="url(#ccp-bg)"/>
  <!-- Large window -->
  <rect x="40" y="20" width="320" height="180" rx="4" fill="#D8E8D8"/>
  <!-- Rain -->
  <g stroke="#87CEEB" stroke-width="0.8" opacity="0.4">
    <line x1="60" y1="20" x2="55" y2="60"/>
    <line x1="80" y1="25" x2="75" y2="70"/>
    <line x1="100" y1="22" x2="95" y2="65"/>
    <line x1="130" y1="28" x2="125" y2="80"/>
    <line x1="160" y1="20" x2="155" y2="75"/>
    <line x1="190" y1="30" x2="185" y2="85"/>
    <line x1="220" y1="25" x2="215" y2="78"/>
    <line x1="250" y1="22" x2="245" y2="70"/>
    <line x1="280" y1="28" x2="275" y2="82"/>
    <line x1="310" y1="20" x2="305" y2="68"/>
    <line x1="340" y1="26" x2="335" y2="72"/>
    <line x1="70" y1="60" x2="65" y2="100"/>
    <line x1="145" y1="55" x2="140" y2="95"/>
    <line x1="205" y1="50" x2="200" y2="110"/>
    <line x1="265" y1="60" x2="260" y2="105"/>
    <line x1="325" y1="58" x2="320" y2="98"/>
  </g>
  <!-- Window frame -->
  <rect x="40" y="20" width="320" height="180" rx="4" stroke="#8B7355" stroke-width="4" fill="none"/>
  <line x1="200" y1="20" x2="200" y2="200" stroke="#8B7355" stroke-width="2"/>
  <line x1="40" y1="110" x2="360" y2="110" stroke="#8B7355" stroke-width="2"/>
  <!-- Bookshelf on left wall -->
  <rect x="5" y="60" width="30" height="120" fill="#5C3A21" rx="2"/>
  <g stroke="#3E2213" stroke-width="0.5">
    <line x1="5" y1="90" x2="35" y2="90"/>
    <line x1="5" y1="120" x2="35" y2="120"/>
    <line x1="5" y1="150" x2="35" y2="150"/>
  </g>
  <rect x="8" y="63" width="6" height="25" fill="#D4A574" rx="0.5"/>
  <rect x="16" y="66" width="4" height="22" fill="#8FBC8F" rx="0.5"/>
  <rect x="8" y="93" width="7" height="25" fill="#D8A7B9" rx="0.5"/>
  <rect x="17" y="95" width="5" height="23" fill="#8B7355" rx="0.5"/>
  <!-- Potted plant -->
  <path d="M340 200 L340 165 C340 160 345 155 350 150" stroke="#8FBC8F" stroke-width="3" fill="none"/>
  <path d="M340 165 C335 158 330 155 325 152" stroke="#8FBC8F" stroke-width="2" fill="none"/>
  <path d="M340 160 C342 155 348 152 355 148" stroke="#8FBC8F" stroke-width="2" fill="none"/>
  <ellipse cx="340" cy="162" rx="4" ry="5" fill="#8FBC8F" opacity="0.5"/>
  <rect x="334" y="200" width="14" height="12" rx="1" fill="#E2725B"/>
  <!-- Armchair -->
  <path d="M150 230 L150 180 C150 175 155 170 200 170 C245 170 250 175 250 180 L250 230Z" fill="#D8A7B9"/>
  <rect x="145" y="230" width="110" height="20" rx="3" fill="#C9A0B0"/>
  <rect x="145" y="230" width="110" height="5" rx="2" fill="#D8A7B9"/>
  <!-- Knitted blanket on armchair -->
  <path d="M160 180 C170 190 230 190 240 180 L245 220 C235 230 165 230 155 220Z" fill="#8FBC8F" opacity="0.6"/>
  <g stroke="#D4A574" stroke-width="0.5" opacity="0.5">
    <line x1="165" y1="195" x2="235" y2="195"/>
    <line x1="163" y1="205" x2="237" y2="205"/>
    <line x1="160" y1="215" x2="240" y2="215"/>
  </g>
  <!-- Cat sleeping on armchair -->
  <ellipse cx="190" cy="195" rx="20" ry="12" fill="#FFC87C" opacity="0.8"/>
  <ellipse cx="190" cy="190" rx="12" ry="8" fill="#FFC87C"/>
  <circle cx="185" cy="188" r="1" fill="#5C3A21"/>
  <circle cx="193" cy="188" r="1" fill="#5C3A21"/>
  <ellipse cx="178" cy="195" rx="8" ry="3" fill="#FFC87C" opacity="0.6"/>
  <!-- Teacup on side table -->
  <rect x="120" y="220" width="20" height="24" rx="2" fill="#5C3A21" opacity="0.6"/>
  <path d="M110 205 C110 210 116 215 120 215 C124 215 130 210 130 205" fill="#FFFDD0" stroke="#E2725B" stroke-width="1.5"/>
  <ellipse cx="120" cy="205" rx="9" ry="3" fill="#D4A574" opacity="0.7"/>
  <!-- Steam from teacup -->
  <g stroke="#FFFDD0" stroke-width="1" fill="none" opacity="0.4">
    <path d="M116 200 C114 195 118 190 116 185"/>
    <path d="M122 202 C120 197 124 192 122 187"/>
    <path d="M127 200 C125 196 128 192 127 188"/>
  </g>
  <!-- Warm glow lamp -->
  <circle cx="300" cy="40" r="15" fill="#FFC87C" opacity="0.15"/>
  <rect x="297" y="40" width="6" height="20" fill="#8B7355"/>
  <path d="M290 40 L310 40 L305 25 L295 25Z" fill="#FFC87C" opacity="0.7"/>
  <circle cx="300" cy="30" r="3" fill="#FFD700" opacity="0.6"/>
  <!-- Floor -->
  <rect x="0" y="250" width="400" height="50" fill="#D4A574" opacity="0.3"/>
  <g stroke="#D4A574" stroke-width="0.3" opacity="0.2">
    <line x1="0" y1="260" x2="400" y2="260"/>
    <line x1="0" y1="270" x2="400" y2="270"/>
    <line x1="0" y1="280" x2="400" y2="280"/>
  </g>
</svg>
