<svg xmlns="http://www.w3.org/2000/svg" viewBox="0 0 64 64" fill="none">
  <defs>
    <linearGradient id="dw-bg" x1="0" y1="0" x2="0" y2="1">
      <stop offset="0%" stop-color="#1A237E"/>
      <stop offset="100%" stop-color="#B39DDB"/>
    </linearGradient>
  </defs>
  <rect width="64" height="64" rx="8" fill="url(#dw-bg)"/>
  <!-- Moon -->
  <circle cx="48" cy="16" r="10" fill="#FFD54F" opacity="0.8"/>
  <circle cx="45" cy="14" r="2" fill="#1A237E" opacity="0.3"/>
  <circle cx="50" cy="18" r="1.5" fill="#1A237E" opacity="0.2"/>
  <!-- Floating island -->
  <path d="M12 42 C12 38 18 34 32 34 C46 34 52 38 52 42 C52 46 46 50 32 50 C18 50 12 46 12 42Z" fill="#B39DDB" opacity="0.5"/>
  <rect x="12" y="42" width="40" height="8" rx="2" fill="#8FBC8F" opacity="0.3"/>
  <!-- Tree on island -->
  <path d="M32 38 C32 30 28 28 24 26 M32 38 C32 30 36 28 40 26 M32 38 C32 30 32 28 32 26" stroke="#A5D6A7" stroke-width="1.5" fill="none" opacity="0.7"/>
  <line x1="32" y1="38" x2="32" y2="34" stroke="#A5D6A7" stroke-width="1" opacity="0.5"/>
  <!-- Waterfall -->
  <g stroke="#90CAF9" stroke-width="1" opacity="0.4">
    <line x1="28" y1="50" x2="25" y2="60"/><line x1="30" y1="50" x2="29" y2="60"/>
    <line x1="32" y1="50" x2="32" y2="60"/><line x1="34" y1="50" x2="35" y2="60"/>
  </g>
  <!-- Stars/Sparkles -->
  <g fill="#F8BBD0" opacity="0.7">
    <circle cx="8" cy="8" r="1.5"/><circle cx="18" cy="4" r="1"/>
    <circle cx="58" cy="8" r="1"/><circle cx="5" cy="20" r="1"/>
  </g>
  <g fill="#A5D6A7" opacity="0.5">
    <circle cx="14" cy="16" r="0.8"/><circle cx="42" cy="6" r="1.2"/>
    <circle cx="56" cy="22" r="0.8"/>
  </g>
  <!-- Sparkle cross -->
  <path d="M40 48 L44 52 M44 48 L40 52" stroke="#FFD54F" stroke-width="0.8" opacity="0.6"/>
  <path d="M18 30 L20 32 M20 30 L18 32" stroke="#F8BBD0" stroke-width="0.6" opacity="0.5"/>
</svg>
