<svg xmlns="http://www.w3.org/2000/svg" viewBox="0 0 64 64" fill="none">
  <defs>
    <linearGradient id="nn-bg" x1="0" y1="0" x2="0" y2="1">
      <stop offset="0%" stop-color="#1A0033"/>
      <stop offset="100%" stop-color="#FF1493"/>
    </linearGradient>
    <linearGradient id="nn-sun" x1="0" y1="0" x2="0" y2="1">
      <stop offset="0%" stop-color="#FF00FF"/>
      <stop offset="100%" stop-color="#FF1493"/>
    </linearGradient>
  </defs>
  <rect width="64" height="64" rx="8" fill="url(#nn-bg)"/>
  <path d="M0 54 L64 54 M0 58 L64 58 M0 62 L64 62" stroke="#FF1493" stroke-width="0.5" opacity="0.5"/>
  <path d="M8 64 L8 50 M20 64 L20 50 M32 64 L32 50 M44 64 L44 50 M56 64 L56 50" stroke="#FF1493" stroke-width="0.5" opacity="0.5"/>
  <ellipse cx="32" cy="40" rx="16" ry="10" fill="url(#nn-sun)" opacity="0.6"/>
  <line x1="32" y1="40" x2="32" y2="50" stroke="#FF00FF" stroke-width="2" opacity="0.8"/>
  <path d="M38 36 C38 28 42 22 48 18" stroke="#00FFFF" stroke-width="2" fill="none" opacity="0.8"/>
  <path d="M38 36 C38 28 34 24 28 22" stroke="#00FFFF" stroke-width="2" fill="none" opacity="0.8"/>
  <path d="M38 36 C38 30 44 28 52 26" stroke="#00FFFF" stroke-width="2" fill="none" opacity="0.8"/>
  <path d="M38 36 L38 42" stroke="#00FFFF" stroke-width="2" opacity="0.8"/>
  <circle cx="10" cy="10" r="1" fill="#00FFFF" opacity="0.7"/>
  <circle cx="52" cy="8" r="1" fill="#FF00FF" opacity="0.7"/>
  <circle cx="20" cy="6" r="0.8" fill="#00FFFF" opacity="0.5"/>
  <rect x="48" y="2" width="14" height="6" rx="1" fill="#C0C0C0" opacity="0.4"/>
</svg>
